<svg width="21" height="12" viewBox="0 0 21 12" fill="none" xmlns="http://www.w3.org/2000/svg">
<path d="M4.008 7.228C4.088 7.212 4.172 7.204 4.26 7.204C4.356 7.196 4.44 7.2 4.512 7.216C4.592 7.232 4.656 7.26 4.704 7.3C4.76 7.34 4.792 7.392 4.8 7.456C4.808 7.576 4.736 7.68 4.584 7.768C4.44 7.856 4.276 7.928 4.092 7.984C3.508 8.144 2.968 8.272 2.472 8.368C1.976 8.456 1.472 8.528 0.96 8.584C0.768 8.608 0.604 8.596 0.468 8.548C0.34 8.492 0.264 8.416 0.24 8.32C0.224 8.232 0.232 8.156 0.264 8.092C0.296 8.028 0.34 7.976 0.396 7.936C0.452 7.896 0.512 7.868 0.576 7.852C0.64 7.828 0.696 7.816 0.744 7.816C0.872 7.8 0.996 7.784 1.116 7.768C1.244 7.752 1.372 7.736 1.5 7.72C1.532 7.576 1.56 7.4 1.584 7.192C1.608 6.984 1.628 6.768 1.644 6.544C1.66 6.312 1.672 6.084 1.68 5.86C1.688 5.636 1.692 5.436 1.692 5.26C1.628 5.276 1.588 5.284 1.572 5.284C1.3 5.34 1.056 5.32 0.84 5.224C0.632 5.128 0.504 4.948 0.456 4.684C0.432 4.548 0.436 4.408 0.468 4.264C0.5 4.112 0.556 3.964 0.636 3.82C0.724 3.676 0.828 3.54 0.948 3.412C1.076 3.276 1.216 3.156 1.368 3.052C1.528 2.948 1.676 2.908 1.812 2.932C1.948 2.964 2.024 3.04 2.04 3.16C2.08 3.16 2.116 3.164 2.148 3.172C2.188 3.172 2.228 3.172 2.268 3.172C2.5 3.196 2.696 3.268 2.856 3.388C3.024 3.508 3.108 3.672 3.108 3.88C3.108 4.04 3.048 4.216 2.928 4.408C2.816 4.6 2.652 4.772 2.436 4.924C2.444 5.1 2.448 5.308 2.448 5.548C2.448 5.78 2.44 6.02 2.424 6.268C2.416 6.508 2.404 6.744 2.388 6.976C2.372 7.208 2.348 7.412 2.316 7.588C2.916 7.484 3.48 7.364 4.008 7.228ZM1.296 4.444C1.328 4.54 1.404 4.576 1.524 4.552C1.644 4.528 1.772 4.48 1.908 4.408C2.052 4.336 2.176 4.252 2.28 4.156C2.392 4.06 2.452 3.984 2.46 3.928C2.468 3.88 2.452 3.844 2.412 3.82C2.372 3.788 2.324 3.764 2.268 3.748C2.22 3.724 2.164 3.708 2.1 3.7C2.044 3.692 1.996 3.684 1.956 3.676C1.876 3.668 1.824 3.628 1.8 3.556C1.736 3.62 1.668 3.692 1.596 3.772C1.524 3.844 1.46 3.92 1.404 4C1.356 4.072 1.32 4.148 1.296 4.228C1.272 4.308 1.272 4.38 1.296 4.444ZM6.49669 1.432C6.45669 1.616 6.41269 1.828 6.36469 2.068C6.31669 2.3 6.28469 2.512 6.26869 2.704C6.40469 2.672 6.55669 2.632 6.72469 2.584C6.90069 2.536 7.07669 2.484 7.25269 2.428C7.42869 2.372 7.60069 2.316 7.76869 2.26C7.94469 2.196 8.10469 2.14 8.24869 2.092C8.39269 2.052 8.52469 2.036 8.64469 2.044C8.76469 2.052 8.84469 2.12 8.88469 2.248C8.90869 2.336 8.88869 2.412 8.82469 2.476C8.76069 2.54 8.64869 2.616 8.48869 2.704C8.07269 2.888 7.68869 3.044 7.33669 3.172C6.99269 3.3 6.62469 3.412 6.23269 3.508C6.10469 3.54 5.99269 3.544 5.89669 3.52C5.80869 3.496 5.73269 3.456 5.66869 3.4C5.61269 3.336 5.56869 3.26 5.53669 3.172C5.51269 3.084 5.50469 2.992 5.51269 2.896C5.54469 2.576 5.58469 2.26 5.63269 1.948C5.68869 1.636 5.75269 1.324 5.82469 1.012C5.83269 0.988 5.86069 0.952 5.90869 0.904C5.95669 0.855999 6.04869 0.843999 6.18469 0.868C6.28069 0.883999 6.36469 0.947999 6.43669 1.06C6.51669 1.164 6.53669 1.288 6.49669 1.432ZM9.41269 4.552C9.18069 4.6 8.90069 4.656 8.57269 4.72C8.24469 4.776 7.90069 4.836 7.54069 4.9C7.18869 4.956 6.83269 5.012 6.47269 5.068C6.11269 5.124 5.78069 5.168 5.47669 5.2C5.40469 5.208 5.32469 5.18 5.23669 5.116C5.15669 5.052 5.10869 4.976 5.09269 4.888C5.07669 4.816 5.08869 4.748 5.12869 4.684C5.17669 4.62 5.23669 4.58 5.30869 4.564C6.01269 4.404 6.70469 4.272 7.38469 4.168C8.06469 4.064 8.75669 3.992 9.46069 3.952C9.52469 3.96 9.58469 3.976 9.64069 4C9.70469 4.016 9.73669 4.08 9.73669 4.192C9.73669 4.296 9.69669 4.38 9.61669 4.444C9.54469 4.5 9.47669 4.536 9.41269 4.552ZM8.87269 6.58C8.80069 6.636 8.71669 6.72 8.62069 6.832C8.53269 6.936 8.43669 7.048 8.33269 7.168C8.23669 7.288 8.14069 7.404 8.04469 7.516C7.95669 7.628 7.87669 7.72 7.80469 7.792C8.02869 7.776 8.25669 7.784 8.48869 7.816C8.72869 7.84 8.89669 7.88 8.99269 7.936C9.13669 8.024 9.21269 8.14 9.22069 8.284C9.23669 8.428 9.18869 8.592 9.07669 8.776C8.99669 8.928 8.90869 9.064 8.81269 9.184C8.71669 9.304 8.61669 9.424 8.51269 9.544C8.41669 9.656 8.32069 9.776 8.22469 9.904C8.12869 10.024 8.04069 10.164 7.96069 10.324C8.28069 10.26 8.62469 10.176 8.99269 10.072C9.36869 9.976 9.68869 9.88 9.95269 9.784C10.0647 9.744 10.1607 9.736 10.2407 9.76C10.3287 9.776 10.3967 9.808 10.4447 9.856C10.5087 9.92 10.5367 10.008 10.5287 10.12C10.5287 10.232 10.4727 10.316 10.3607 10.372C10.0167 10.556 9.61669 10.716 9.16069 10.852C8.70469 10.996 8.25669 11.108 7.81669 11.188C7.48069 11.252 7.22869 11.196 7.06069 11.02C6.90069 10.852 6.88869 10.624 7.02469 10.336C7.12869 10.136 7.23269 9.964 7.33669 9.82C7.44069 9.668 7.54469 9.528 7.64869 9.4C7.76069 9.264 7.87269 9.132 7.98469 9.004C8.09669 8.868 8.22069 8.708 8.35669 8.524C8.25269 8.516 8.13669 8.512 8.00869 8.512C7.88869 8.512 7.76869 8.516 7.64869 8.524C7.52869 8.532 7.41669 8.544 7.31269 8.56C7.20869 8.568 7.12869 8.572 7.07269 8.572C7.00069 8.572 6.93669 8.552 6.88069 8.512C6.82469 8.472 6.78069 8.42 6.74869 8.356C6.72469 8.284 6.71669 8.204 6.72469 8.116C6.73269 8.028 6.76869 7.94 6.83269 7.852C6.88869 7.78 6.96869 7.688 7.07269 7.576C7.17669 7.456 7.28469 7.336 7.39669 7.216C7.50869 7.088 7.62069 6.964 7.73269 6.844C7.84469 6.724 7.94069 6.616 8.02069 6.52C7.83669 6.528 7.62469 6.56 7.38469 6.616C7.15269 6.672 6.95669 6.72 6.79669 6.76C6.62069 6.808 6.49269 6.784 6.41269 6.688C6.33269 6.592 6.28869 6.5 6.28069 6.412C6.27269 6.324 6.30469 6.252 6.37669 6.196C6.44869 6.132 6.53269 6.084 6.62869 6.052C7.20469 5.86 7.76469 5.772 8.30869 5.788C8.49269 5.804 8.63269 5.84 8.72869 5.896C8.83269 5.952 8.90469 6.02 8.94469 6.1C8.99269 6.188 9.00869 6.28 8.99269 6.376C8.97669 6.464 8.93669 6.532 8.87269 6.58ZM12.0338 6.484C12.2898 6.46 12.5298 6.432 12.7538 6.4C12.9858 6.368 13.2138 6.336 13.4378 6.304C13.6618 6.264 13.8858 6.224 14.1098 6.184C14.3418 6.136 14.5858 6.088 14.8418 6.04C14.8818 6.024 14.9218 6.028 14.9618 6.052C15.0098 6.068 15.0418 6.096 15.0578 6.136C15.0898 6.224 15.0818 6.308 15.0338 6.388C14.9938 6.468 14.9338 6.54 14.8538 6.604C14.7818 6.66 14.7018 6.712 14.6138 6.76C14.5338 6.8 14.4658 6.828 14.4098 6.844C14.1698 6.916 13.8978 6.984 13.5938 7.048C13.2978 7.104 12.9898 7.156 12.6698 7.204C12.3498 7.244 12.0338 7.276 11.7218 7.3C11.4098 7.324 11.1258 7.332 10.8698 7.324C10.7338 7.316 10.6138 7.276 10.5098 7.204C10.4138 7.132 10.3578 7.068 10.3418 7.012C10.3178 6.892 10.3418 6.796 10.4138 6.724C10.4858 6.652 10.5778 6.608 10.6898 6.592C10.7298 6.584 10.8218 6.576 10.9658 6.568C11.1178 6.56 11.2458 6.548 11.3498 6.532C11.3338 6.308 11.3138 6.08 11.2898 5.848C11.2738 5.616 11.2578 5.392 11.2418 5.176C11.2338 4.96 11.2298 4.76 11.2298 4.576C11.2378 4.384 11.2538 4.216 11.2778 4.072C11.2938 4.008 11.3338 3.94 11.3978 3.868C11.4618 3.796 11.5738 3.76 11.7338 3.76C11.8298 3.76 11.8938 3.8 11.9258 3.88C11.9658 3.952 11.9858 4.044 11.9858 4.156C11.9778 4.372 11.9738 4.576 11.9738 4.768C11.9738 4.96 11.9738 5.148 11.9738 5.332C11.9818 5.516 11.9898 5.704 11.9978 5.896C12.0058 6.08 12.0178 6.276 12.0338 6.484ZM13.5098 4.312C13.4938 4.448 13.4538 4.548 13.3898 4.612C13.3338 4.668 13.2738 4.704 13.2098 4.72C13.1538 4.728 13.0738 4.72 12.9698 4.696C12.8738 4.672 12.8218 4.58 12.8138 4.42C12.8058 4.3 12.7978 4.16 12.7898 4C12.7898 3.832 12.7858 3.66 12.7778 3.484C12.7698 3.3 12.7578 3.116 12.7418 2.932C12.7338 2.748 12.7218 2.576 12.7058 2.416C12.5698 2.432 12.4218 2.46 12.2618 2.5C12.1018 2.54 11.9418 2.588 11.7818 2.644C11.6218 2.7 11.4658 2.76 11.3138 2.824C11.1618 2.888 11.0298 2.948 10.9178 3.004C10.8298 3.044 10.7418 3.044 10.6538 3.004C10.5738 2.964 10.5138 2.908 10.4738 2.836C10.4338 2.764 10.4258 2.684 10.4498 2.596C10.4738 2.508 10.5098 2.444 10.5578 2.404C10.8298 2.196 11.1578 2.028 11.5418 1.9C11.9258 1.764 12.2898 1.68 12.6338 1.648C12.9778 1.616 13.2098 1.664 13.3298 1.792C13.4498 1.912 13.5178 2.116 13.5338 2.404C13.5338 2.54 13.5338 2.696 13.5338 2.872C13.5418 3.04 13.5418 3.212 13.5338 3.388C13.5338 3.564 13.5298 3.732 13.5218 3.892C13.5218 4.052 13.5178 4.192 13.5098 4.312ZM13.9778 8.764C13.9938 8.956 13.9578 9.14 13.8698 9.316C13.7818 9.484 13.6658 9.632 13.5218 9.76C13.3858 9.888 13.2298 9.992 13.0538 10.072C12.8778 10.16 12.7138 10.208 12.5618 10.216C12.3058 10.232 12.1178 10.16 11.9978 10C11.8858 9.84 11.8378 9.616 11.8538 9.328C11.8698 9.152 11.9178 8.96 11.9978 8.752C12.0778 8.544 12.2218 8.324 12.4298 8.092C12.5178 8.004 12.6298 7.924 12.7658 7.852C12.9098 7.78 13.0338 7.768 13.1378 7.816C13.1938 7.848 13.2258 7.888 13.2338 7.936C13.2498 7.976 13.2538 8.024 13.2458 8.08C13.5018 8.096 13.6818 8.176 13.7858 8.32C13.8978 8.464 13.9618 8.612 13.9778 8.764ZM12.5858 9.568C12.6978 9.536 12.8178 9.484 12.9458 9.412C13.0738 9.332 13.1818 9.224 13.2698 9.088C13.3018 9.04 13.3258 8.984 13.3418 8.92C13.3578 8.848 13.3618 8.792 13.3538 8.752C13.3458 8.688 13.3218 8.624 13.2818 8.56C13.2418 8.488 13.1778 8.432 13.0898 8.392C13.0338 8.464 12.9738 8.548 12.9098 8.644C12.8538 8.732 12.7978 8.828 12.7418 8.932C12.6938 9.036 12.6458 9.14 12.5978 9.244C12.5578 9.34 12.5258 9.436 12.5018 9.532C12.4938 9.556 12.5018 9.572 12.5258 9.58C12.5498 9.58 12.5698 9.576 12.5858 9.568ZM18.437 2.056C18.437 1.904 18.457 1.776 18.497 1.672C18.537 1.568 18.585 1.484 18.641 1.42C18.705 1.356 18.769 1.312 18.833 1.288C18.897 1.256 18.949 1.24 18.989 1.24C19.101 1.24 19.177 1.296 19.217 1.408C19.265 1.52 19.289 1.664 19.289 1.84C19.289 2.152 19.281 2.476 19.265 2.812C19.249 3.148 19.225 3.476 19.193 3.796C19.161 4.116 19.117 4.42 19.061 4.708C19.013 4.988 18.949 5.236 18.869 5.452C18.789 5.692 18.657 5.872 18.473 5.992C18.289 6.104 18.089 6.136 17.873 6.088C17.745 6.064 17.633 6.008 17.537 5.92C17.441 5.824 17.361 5.716 17.297 5.596C17.233 5.468 17.185 5.336 17.153 5.2C17.129 5.064 17.125 4.936 17.141 4.816C17.181 4.528 17.293 4.276 17.477 4.06C17.661 3.844 17.961 3.66 18.377 3.508C18.393 3.3 18.405 3.076 18.413 2.836C18.421 2.588 18.429 2.328 18.437 2.056ZM19.013 10.6C18.933 10.6 18.865 10.58 18.809 10.54C18.753 10.508 18.705 10.468 18.665 10.42C18.633 10.372 18.605 10.32 18.581 10.264C18.565 10.216 18.557 10.176 18.557 10.144C18.493 9.736 18.457 9.324 18.449 8.908C18.441 8.484 18.445 8.104 18.461 7.768C18.237 7.872 18.021 7.976 17.813 8.08C17.613 8.176 17.425 8.268 17.249 8.356C17.089 8.436 16.933 8.448 16.781 8.392C16.637 8.328 16.545 8.236 16.505 8.116C16.473 8.012 16.493 7.924 16.565 7.852C16.645 7.772 16.753 7.692 16.889 7.612C16.977 7.556 17.125 7.476 17.333 7.372C17.549 7.268 17.793 7.16 18.065 7.048C18.337 6.936 18.621 6.832 18.917 6.736C19.213 6.64 19.493 6.572 19.757 6.532C19.869 6.516 19.965 6.54 20.045 6.604C20.133 6.668 20.197 6.736 20.237 6.808C20.285 6.904 20.269 6.984 20.189 7.048C20.117 7.112 20.013 7.172 19.877 7.228C19.621 7.3 19.369 7.384 19.121 7.48C19.169 7.56 19.201 7.652 19.217 7.756C19.209 7.908 19.201 8.088 19.193 8.296C19.193 8.504 19.193 8.724 19.193 8.956C19.193 9.18 19.193 9.404 19.193 9.628C19.193 9.852 19.193 10.056 19.193 10.24C19.193 10.336 19.177 10.42 19.145 10.492C19.121 10.564 19.077 10.6 19.013 10.6ZM16.589 2.476C16.549 2.996 16.537 3.544 16.553 4.12C16.577 4.696 16.641 5.284 16.745 5.884C16.753 5.932 16.761 5.996 16.769 6.076C16.777 6.156 16.777 6.236 16.769 6.316C16.761 6.388 16.741 6.452 16.709 6.508C16.677 6.564 16.629 6.596 16.565 6.604C16.477 6.62 16.397 6.596 16.325 6.532C16.261 6.468 16.205 6.392 16.157 6.304C16.109 6.208 16.069 6.112 16.037 6.016C16.005 5.92 15.985 5.844 15.977 5.788C15.873 5.204 15.809 4.628 15.785 4.06C15.761 3.492 15.769 2.916 15.809 2.332C15.825 2.244 15.853 2.16 15.893 2.08C15.941 2 16.017 1.952 16.121 1.936C16.225 1.928 16.309 1.94 16.373 1.972C16.437 2.004 16.485 2.048 16.517 2.104C16.549 2.16 16.569 2.224 16.577 2.296C16.585 2.36 16.589 2.42 16.589 2.476ZM17.729 4.984C17.729 5.048 17.745 5.124 17.777 5.212C17.809 5.292 17.857 5.336 17.921 5.344C18.001 5.352 18.065 5.292 18.113 5.164C18.193 4.916 18.257 4.608 18.305 4.24C18.249 4.264 18.189 4.296 18.125 4.336C18.061 4.376 17.997 4.428 17.933 4.492C17.877 4.548 17.829 4.62 17.789 4.708C17.749 4.788 17.729 4.88 17.729 4.984Z" fill="black"/>
</svg>
